<svg width="1em" height="1em" viewBox="0 0 400 400" fill="none" xmlns="http://www.w3.org/2000/svg">
<rect width="400" height="400" rx="80" fill="white"/>
<g clip-path="url(#clip0_1008_5763)">
<path d="M144.131 72C145.192 72 146.21 72.4214 146.96 73.1716L201.882 128.094L256.805 73.1716C257.555 72.4214 258.572 72 259.633 72H324C326.209 72 328 73.7909 328 76V86.1549C328 87.2158 327.579 88.2332 326.828 88.9833L201.882 213.929L73.1757 85.5958C72.423 84.8453 72 83.8262 72 82.7633V76C72 73.7909 73.7909 72 76 72H144.131ZM72 155.314C72 148.186 80.6171 144.617 85.6569 149.657L132.988 196.988V320C132.988 324.418 129.407 328 124.988 328H80C75.5817 328 72 324.418 72 320V155.314ZM314.343 153.422C319.383 148.382 328 151.951 328 159.078V320C328 324.418 324.418 328 320 328H275.012C270.593 328 267.012 324.418 267.012 320V200.753L314.343 153.422Z" fill="#1976d2"/>
</g>
<defs>
<clipPath id="clip0_1008_5763">
<rect width="256" height="256" fill="white" transform="translate(72 72)"/>
</clipPath>
</defs>
</svg>
